<?xml version="1.0" encoding="utf-8"?>
<!-- Generator: Adobe Illustrator 19.0.0, SVG Export Plug-In . SVG Version: 6.00 Build 0)  -->
<svg version="1.1" id="Layer_1" xmlns="http://www.w3.org/2000/svg" xmlns:xlink="http://www.w3.org/1999/xlink" x="0px" y="0px"
	 viewBox="-60 52 48 48" style="enable-background:new -60 52 48 48;" xml:space="preserve">
<style type="text/css">
	.st0{fill:#FFFFFF;}
</style>
<path class="st0" d="M-16.5,100h-39c-2.5,0-4.5-2-4.5-4.5v-15l6-25.5c0.3-1.1,1.3-3,3-3h28.5c1.7,0,2.8,1.9,3,3l7.5,25.5v15
	C-12,98-14,100-16.5,100z M-22.5,56.5c0-0.8-0.7-1.5-1.5-1.5h-25.5c-0.8,0-1.5,0.7-1.5,1.5L-56.6,79h10.1h1.5c1.5,0,1.5,1.5,1.5,1.5
	V85c0,0.8,0.7,1.5,1.5,1.5h12c0.8,0,1.5-0.7,1.5-1.5v-4.5c0,0-0.1-1.5,1.5-1.5h1.5h10L-22.5,56.5z M-15,82h-10.5v4.5
	c0,1.7-1.3,3-3,3h-15c-1.7,0-3-1.3-3-3V82H-57v12c0,1.7,1.3,3,3,3h36c1.7,0,3-1.3,3-3V82z M-49.5,73c0-0.8,0.7-1.5,1.5-1.5h24
	c0.8,0,1.5,0.7,1.5,1.5s-0.7,1.5-1.5,1.5h-24C-48.8,74.5-49.5,73.8-49.5,73z M-25.5,68.5h-21c-0.8,0-1.5-0.7-1.5-1.5
	s0.7-1.5,1.5-1.5h21c0.8,0,1.5,0.7,1.5,1.5S-24.7,68.5-25.5,68.5z M-27,62.5h-18c-0.8,0-1.5-0.7-1.5-1.5s0.7-1.5,1.5-1.5h18
	c0.8,0,1.5,0.7,1.5,1.5S-26.2,62.5-27,62.5z"/>
</svg>
