<?xml version="1.0" encoding="utf-8"?>
<!-- Generator: Adobe Illustrator 19.0.0, SVG Export Plug-In . SVG Version: 6.00 Build 0)  -->
<svg version="1.1" id="Layer_1" xmlns="http://www.w3.org/2000/svg" xmlns:xlink="http://www.w3.org/1999/xlink" x="0px" y="0px"
	 viewBox="-60 52 48 48" style="enable-background:new -60 52 48 48;" xml:space="preserve">
<style type="text/css">
	.st0{fill:#FFFFFF;}
</style>
<path class="st0" d="M-16.5,100h-39c-2.5,0-4.5-2-4.5-4.5v-39c0-2.5,2-4.5,4.5-4.5h39c2.5,0,4.5,2,4.5,4.5v39
	C-12,98-14,100-16.5,100z M-15,58c0-1.7-1.3-3-3-3h-36c-1.7,0-3,1.3-3,3v6h42V58z M-15,67h-42v27c0,1.7,1.3,3,3,3h36
	c1.7,0,3-1.3,3-3V67z M-52.5,58c0.8,0,1.5,0.7,1.5,1.5s-0.7,1.5-1.5,1.5s-1.5-0.7-1.5-1.5S-53.3,58-52.5,58z M-46.5,58
	c0.8,0,1.5,0.7,1.5,1.5s-0.7,1.5-1.5,1.5s-1.5-0.7-1.5-1.5S-47.3,58-46.5,58z M-40.5,58c0.8,0,1.5,0.7,1.5,1.5s-0.7,1.5-1.5,1.5
	s-1.5-0.7-1.5-1.5S-41.3,58-40.5,58z"/>
</svg>
