<?xml version="1.0" encoding="utf-8"?>
<!-- Generator: Adobe Illustrator 19.0.0, SVG Export Plug-In . SVG Version: 6.00 Build 0)  -->
<svg version="1.1" id="Layer_1" xmlns="http://www.w3.org/2000/svg" xmlns:xlink="http://www.w3.org/1999/xlink" x="0px" y="0px"
	 viewBox="0 0 170 150" style="enable-background:new 0 0 170 150;" xml:space="preserve">
<style type="text/css">
	.st0{fill:none;stroke:#FFFFFF;stroke-width:5;stroke-linejoin:round;}
	.st1{fill:#FFFFFF;}
</style>
<path id="XMLID_2_" class="st0" d="M74.5,45.7h21.6v21.6H74.5V45.7z"/>
<path id="XMLID_6_" class="st1" d="M138.4,112.8c-4.9,0-8.4-3.3-8.4-8.3c0-5.1,3.5-8.4,8.4-8.4c4.9-0.1,8.4,3.2,8.4,8.3
	C146.8,109.4,143.3,112.7,138.4,112.8z M138.4,98.7c-3.3,0-5.4,2.5-5.4,5.7c0,3.4,2.2,5.9,5.4,5.9c3.3,0,5.5-2.5,5.5-5.9
	C143.9,101.2,141.7,98.7,138.4,98.7z M124.7,112.4h-2.8V99.1h-4.9v-2.6h12.5v2.6h-4.9V112.4z M109.8,110.3c1.3,0,2.5-0.6,3.6-1.9
	l2.3,1.7c-1.4,2-3.6,2.8-5.9,2.8c-4.9,0-8.4-3.3-8.4-8.3c0-5.1,3.5-8.4,8.4-8.4c2.1,0,4,0.7,5.6,2.5l-2.2,1.6
	c-1.2-1.2-2.2-1.6-3.3-1.6c-3.3,0-5.4,2.5-5.4,5.7C104.3,107.8,106.5,110.3,109.8,110.3z M100.2,109.9l0.9,2.6H87.4V96.6h13.3
	l-0.9,2.6h-9.5v3.9h7.3v2.6h-7.3v4.3H100.2z M72.7,100.3L72.7,100.3l0,12.2h-0.1h-2.8H69l-7.8-12.2h0v12.2h-2.8V96.6H62l7.7,11.8h0
	V96.6h0.1h2.8h1l7.7,11.8h0V96.6h2.8v15.9h-3.6L72.7,100.3z M46.9,112.8c-4.9,0-8.4-3.3-8.4-8.3c0-5.1,3.5-8.4,8.4-8.4
	c4.9-0.1,8.4,3.2,8.4,8.3C55.4,109.4,51.9,112.7,46.9,112.8z M47,98.7c-3.3,0-5.4,2.5-5.4,5.7c0,3.4,2.2,5.9,5.4,5.9
	c3.3,0,5.5-2.5,5.5-5.9C52.4,101.2,50.3,98.7,47,98.7z M31.4,110.3c1.3,0,2.5-0.6,3.6-1.9l2.3,1.7c-1.4,2-3.6,2.8-5.9,2.8
	c-4.9,0-8.4-3.3-8.4-8.3c0-5.1,3.5-8.4,8.4-8.4c2.1,0,4,0.7,5.6,2.5l-2.2,1.6c-1.2-1.2-2.2-1.6-3.3-1.6c-3.3,0-5.4,2.5-5.4,5.7
	C26,107.8,28.1,110.3,31.4,110.3z"/>
</svg>
