<?xml version="1.0" encoding="utf-8"?>
<!-- Generator: Adobe Illustrator 19.0.0, SVG Export Plug-In . SVG Version: 6.00 Build 0)  -->
<svg version="1.1" id="Layer_1" xmlns="http://www.w3.org/2000/svg" xmlns:xlink="http://www.w3.org/1999/xlink" x="0px" y="0px"
	 viewBox="-62 52 45 48" style="enable-background:new -62 52 45 48;" xml:space="preserve">
<style type="text/css">
	.st0{fill:#FFFFFF;}
</style>
<path class="st0" d="M-21.5,91H-23v-3c1.7,0,3-1.3,3-3V58c0-1.7-1.3-3-3-3h-24c-1.7,0-3,1.3-3,3h-3v-1.5c0-2.5,2-4.5,4.5-4.5h27
	c2.5,0,4.5,2,4.5,4.5v30C-17,89-19,91-21.5,91z M-26,65.5v30c0,2.5-2,4.5-4.5,4.5h-27c-2.5,0-4.5-2-4.5-4.5v-30c0-2.5,2-4.5,4.5-4.5
	h27C-28,61-26,63-26,65.5z M-56,64c-1.7,0-3,1.3-3,3v27c0,1.7,1.3,3,3,3h24c1.7,0,3-1.3,3-3V67c0-1.7-1.3-3-3-3H-56z"/>
</svg>
