<?xml version="1.0" encoding="utf-8"?>
<!-- Generator: Adobe Illustrator 19.0.0, SVG Export Plug-In . SVG Version: 6.00 Build 0)  -->
<svg version="1.1" id="Layer_1" xmlns="http://www.w3.org/2000/svg" xmlns:xlink="http://www.w3.org/1999/xlink" x="0px" y="0px"
	 viewBox="0 0 170 150" style="enable-background:new 0 0 170 150;" xml:space="preserve">
<style type="text/css">
	.st0{opacity:0.5;fill:#989495;enable-background:new    ;}
	.st1{fill:#FFFFFF;}
</style>
<path id="XMLID_2_" class="st0" d="M121,49c-6.6,0-12-5.4-12-12c0-6.6,5.4-12,12-12s12,5.4,12,12C133,43.6,127.6,49,121,49z M121,30
	c-3.9,0-7,3.1-7,7c0,3.9,3.1,7,7,7s7-3.1,7-7C128,33.1,124.9,30,121,30z"/>
<path id="XMLID_5_" class="st1" d="M103.2,56.5c-3.7-2.1-9.9-3.2-18.4-3.2H63.3v50.5h21.6c8.9,0,15.1-1,18.6-3
	c3.5-2,5.3-5.9,5.3-11.6V68.7C108.8,62.7,107,58.7,103.2,56.5z M94,94.2c-1.8,0.7-5,1.1-9.7,1.1h-8.9V62h9.3c4,0,7,0.5,9,1.4
	c2,0.9,3,2.6,3,5.1v20.8C96.7,91.8,95.8,93.5,94,94.2z"/>
</svg>
