<?xml version="1.0" encoding="utf-8"?>
<!-- Generator: Adobe Illustrator 19.0.0, SVG Export Plug-In . SVG Version: 6.00 Build 0)  -->
<svg version="1.1" id="Layer_1" xmlns="http://www.w3.org/2000/svg" xmlns:xlink="http://www.w3.org/1999/xlink" x="0px" y="0px"
	 viewBox="-41 33 86 86" style="enable-background:new -41 33 86 86;" xml:space="preserve">
<style type="text/css">
	.st0{fill:#202020;fill-opacity:0;stroke:#FFFFFF;stroke-width:6;stroke-linejoin:round;}
	.st1{fill:#FFFFFF;}
</style>
<g>
	<rect x="-38" y="36" class="st0" width="80" height="80"/>
	<path class="st1" d="M10.4,88.7c-1.2,0-2.3-0.4-3-1.1c-0.8-0.8-1.3-1.1-1.5-1.1c-0.7,0-1.8,1.1-3.3,3.2S0,93.9-0.9,96
		c-0.9,2.1-1.7,5.2-2.7,9.6L-6,116h-8.8l7.1-32.5h-7.2l0.6-2.4h5.8c4,0,7.3-0.2,9.9-0.6L-1.3,92l0.2,0.2C3.2,84.1,7,80,10.4,80
		c1.3,0,2.3,0.4,3.2,1.3c0.9,0.8,1.3,1.9,1.3,3.1c0,1.2-0.4,2.3-1.3,3.1C12.8,88.3,11.7,88.7,10.4,88.7z M-10.1,65.9
		c-1.1,0-2.1-0.4-2.9-1.2c-0.8-0.8-1.3-1.8-1.3-2.9s0.4-2.1,1.3-3c0.9-0.9,1.3-1.4,1.3-1.5c0-0.7-0.9-1-2.8-1c-4.2,0-7.2,2.3-9,6.8
		s-3.1,10.5-3.9,18h6.7l-0.5,2.4h-6.6l-3.4,20.2c-0.8,4.7-1.6,8.8-2.4,12.3H-38V91.3l1-5.4c0-0.1,0.1-0.5,0.2-1.2
		c0.1-0.7,0.2-1.1,0.2-1.1H-38v-2.4h2c1.9-9.1,4.7-15.8,8.7-20.3c3.9-4.4,8-6.7,12.3-6.7c2.5,0,4.6,0.7,6.4,2.1
		c1.8,1.4,2.6,3.1,2.6,5.1c0,1.2-0.4,2.3-1.2,3.2S-9,65.9-10.1,65.9z"/>
</g>
</svg>
