<?xml version="1.0" encoding="utf-8"?>
<!-- Generator: Adobe Illustrator 19.0.0, SVG Export Plug-In . SVG Version: 6.00 Build 0)  -->
<svg version="1.1" id="Layer_1" xmlns="http://www.w3.org/2000/svg" xmlns:xlink="http://www.w3.org/1999/xlink" x="0px" y="0px"
	 viewBox="-60 55 48 42" style="enable-background:new -60 55 48 42;" xml:space="preserve">
<style type="text/css">
	.st0{fill:#FFFFFF;}
</style>
<path class="st0" d="M-16.2,79.2C-36,97-36.1,97-36.1,97s0,0-19.7-17.7c-5.6-5.6-5.6-14.5,0-20.1c7.2-7.2,14.1-4,19.8,1.1
	c5.6-5.1,12.7-8.2,19.8-1.1C-10.6,64.7-10.6,73.7-16.2,79.2z M-18.3,61.2C-20.5,59-22.7,58-25,58c-2.7,0-5.7,1.5-9,4.4l-2,1.8
	l-2-1.8c-3.3-3-6.3-4.4-9-4.4c-2.3,0-4.5,1.1-6.7,3.3c-2.1,2-3.3,4.8-3.3,7.8c0,2.9,1.2,5.7,3.2,7.7c10.6,9.3,15.5,14.4,17.8,16.4
	c2.3-2,7.1-7,17.7-16.3c2.1-2.1,3.3-4.8,3.3-7.8C-15,66.1-16.2,63.3-18.3,61.2z"/>
</svg>
