<?xml version="1.0" encoding="utf-8"?>
<!-- Generator: Adobe Illustrator 19.0.0, SVG Export Plug-In . SVG Version: 6.00 Build 0)  -->
<svg version="1.1" id="Layer_1" xmlns="http://www.w3.org/2000/svg" xmlns:xlink="http://www.w3.org/1999/xlink" x="0px" y="0px"
	 viewBox="-60 52 48 48" style="enable-background:new -60 52 48 48;" xml:space="preserve">
<style type="text/css">
	.st0{fill:#FFFFFF;}
</style>
<path class="st0" d="M-16.5,91h-12v6h1.5c0.8,0,1.5,0.7,1.5,1.5s-0.7,1.5-1.5,1.5h-18c-0.8,0-1.5-0.7-1.5-1.5S-45.8,97-45,97h1.5v-6
	h-12c-2.5,0-4.5-2-4.5-4.5v-30c0-2.5,2-4.5,4.5-4.5h39c2.5,0,4.5,2,4.5,4.5v30C-12,89-14,91-16.5,91z M-40.5,97h9v-6h-9V97z M-15,58
	c0-1.7-1.3-3-3-3h-36c-1.7,0-3,1.3-3,3v22.5h42V58z M-15,83.5h-42V85c0,1.7,1.3,3,3,3h36c1.7,0,3-1.3,3-3V83.5z"/>
</svg>
