<?xml version="1.0" encoding="utf-8"?>
<!-- Generator: Adobe Illustrator 19.0.0, SVG Export Plug-In . SVG Version: 6.00 Build 0)  -->
<svg version="1.1" id="Layer_1" xmlns="http://www.w3.org/2000/svg" xmlns:xlink="http://www.w3.org/1999/xlink" x="0px" y="0px"
	 viewBox="-68 52 33 48" style="enable-background:new -68 52 33 48;" xml:space="preserve">
<style type="text/css">
	.st0{fill:#FFFFFF;}
</style>
<path class="st0" d="M-39.5,100h-24c-2.5,0-4.5-2-4.5-4.5v-39c0-2.5,2-4.5,4.5-4.5h24c2.5,0,4.5,2,4.5,4.5v39
	C-35,98-37,100-39.5,100z M-38,58c0-1.7-1.3-3-3-3h-21c-1.7,0-3,1.3-3,3v36c0,1.7,1.3,3,3,3h21c1.7,0,3-1.3,3-3V58z M-48.5,61h-6
	c-0.8,0-1.5-0.7-1.5-1.5s0.7-1.5,1.5-1.5h6c0.8,0,1.5,0.7,1.5,1.5S-47.7,61-48.5,61z M-51.5,88c1.7,0,3,1.3,3,3s-1.3,3-3,3
	s-3-1.3-3-3S-53.2,88-51.5,88z"/>
</svg>
