<?xml version="1.0" encoding="utf-8"?>
<!-- Generator: Adobe Illustrator 19.0.0, SVG Export Plug-In . SVG Version: 6.00 Build 0)  -->
<svg version="1.1" id="Layer_1" xmlns="http://www.w3.org/2000/svg" xmlns:xlink="http://www.w3.org/1999/xlink" x="0px" y="0px"
	 viewBox="-60 52 48 48" style="enable-background:new -60 52 48 48;" xml:space="preserve">
<style type="text/css">
	.st0{fill:#FFFFFF;}
</style>
<path class="st0" d="M-36,52c-13.3,0-24,10.7-24,24s10.7,24,24,24s24-10.7,24-24S-22.7,52-36,52z M-18.7,64.2l-6.5,3.8
	c-0.8-1-1.7-2-2.7-2.7l3.8-6.5C-22,60.1-20.1,62-18.7,64.2z M-25.5,76c0,5.8-4.7,10.5-10.5,10.5S-46.5,81.8-46.5,76
	s4.7-10.5,10.5-10.5S-25.5,70.2-25.5,76z M-36,55c3.3,0,6.4,0.8,9.2,2.2l-3.8,6.5c-1.7-0.7-3.5-1.2-5.5-1.2c-1.6,0-3,0.3-4.4,0.8
	l-3.8-6.5C-41.7,55.6-38.9,55-36,55z M-46.8,58.1l3.7,6.5c-1.2,0.7-2.2,1.6-3.1,2.7l-6.6-3.8C-51.2,61.3-49.1,59.5-46.8,58.1z
	 M-57,76c0-3.7,0.9-7.1,2.6-10.1l6.5,3.8c-1,1.9-1.6,4.1-1.6,6.4c0,1.9,0.4,3.7,1.1,5.3l-6.5,3.8C-56.3,82.3-57,79.3-57,76z
	 M-53.4,87.7l6.5-3.8c0.8,1.1,1.8,2.1,3,3l-3.8,6.5C-50,91.9-51.9,90-53.4,87.7z M-36,97c-3.3,0-6.3-0.8-9.1-2.1l3.8-6.5
	c1.6,0.7,3.4,1.1,5.3,1.1c2.3,0,4.5-0.6,6.4-1.6l3.7,6.5C-28.9,96-32.3,97-36,97z M-23.4,92.8l-3.8-6.6c1-0.9,1.9-1.9,2.7-3.1
	l6.5,3.7C-19.4,89.2-21.3,91.2-23.4,92.8z M-23.3,80.4c0.5-1.4,0.8-2.9,0.8-4.4c0-2-0.4-3.8-1.2-5.5l6.5-3.8
	c1.4,2.8,2.1,5.9,2.1,9.2c0,2.9-0.6,5.7-1.7,8.2L-23.3,80.4z"/>
</svg>
