<?xml version="1.0" encoding="utf-8"?>
<!-- Generator: Adobe Illustrator 19.0.0, SVG Export Plug-In . SVG Version: 6.00 Build 0)  -->
<svg version="1.1" id="Layer_1" xmlns="http://www.w3.org/2000/svg" xmlns:xlink="http://www.w3.org/1999/xlink" x="0px" y="0px"
	 viewBox="-60 52.4 48 47.6" style="enable-background:new -60 52.4 48 47.6;" xml:space="preserve">
<style type="text/css">
	.st0{fill:#FFFFFF;}
</style>
<path class="st0" d="M-31.5,65.7h-12v1.5h12V65.7z M-27,68.7h-16.5v1.5H-27V68.7z M-13.5,69.4L-13.5,69.4l-6-5v-6.1h-7.4l-5.9-4.9
	c-1.8-1.4-4.3-1.4-6.2,0.1l-5.9,4.8H-51v5l-7.4,6.1c-1,0.6-1.6,1.7-1.6,3.8v22.4c0,2.4,2,4.4,4.5,4.4h39c2.5,0,4.5-2,4.5-4.5V73.2
	C-12,71.1-12.6,70-13.5,69.4z M-19.5,68.3l2.9,2.4l-1.1,0.9H-18c0.1,0,0.2,0,0.2,0l-1.7,1.5V68.3z M-37,55.7
	c0.3-0.3,0.7-0.4,1.2-0.4c0.4,0,0.9,0.1,1.1,0.4l3.2,2.6h-8.7L-37,55.7z M-48,61.3h25.5v14.5l-12.2,10.5c-0.3,0.2-0.7,0.4-1.1,0.4
	c-0.4,0-0.8-0.1-1.2-0.4l-11-9.9V61.3z M-51,67.2v6.5l-3.7-3.4L-51,67.2z M-56.9,94.9c0-0.3-0.1-0.6-0.1-0.9V74.7
	c0-0.7,0.3-1.3,0.7-1.9l12.1,11L-56.9,94.9z M-18,97h-36c-0.2,0-0.4,0-0.6-0.1L-42,85.8l0,0l3,2.8c1.9,1.5,4.4,1.4,6.1,0.1l3-2.6
	l12.4,11C-17.6,97-17.8,97-18,97z M-15,94c0,0.3-0.1,0.6-0.1,0.9L-27.5,84l12.2-10.5c0.2,0.4,0.3,0.8,0.3,1.2V94z M-28.5,71.7h-15
	v1.5h15V71.7z"/>
</svg>
