<?xml version="1.0" encoding="utf-8"?>
<!-- Generator: Adobe Illustrator 19.0.0, SVG Export Plug-In . SVG Version: 6.00 Build 0)  -->
<svg version="1.1" id="Layer_1" xmlns="http://www.w3.org/2000/svg" xmlns:xlink="http://www.w3.org/1999/xlink" x="0px" y="0px"
	 viewBox="-60 52 48 48" style="enable-background:new -60 52 48 48;" xml:space="preserve">
<style type="text/css">
	.st0{fill:#FFFFFF;}
</style>
<path class="st0" d="M-49.4,71.4c6.3,5,13.7-2.4,8.7-8.7C-47,57.7-54.3,65-49.4,71.4z M-47.6,65.3c2.3-2.5,5.6-0.9,5.6,1.7
	c0,1.6-1.3,3-3,3C-47.2,70-48.8,67.7-47.6,65.3z M-12,52h-48v48h48V52z M-15,97h-42V55h42V97z M-39.4,87.6c0.6-0.6,0.6-1.5,0-2
	l-4.2-4.2c-0.1-0.2-0.2-0.3-0.3-0.5c-0.4-0.4-1.1-0.5-1.6-0.3c-0.2,0.1-0.4,0.2-0.5,0.3s-0.1,0.1-0.1,0.2l-7.4,7.4
	c-0.6,0.6-0.6,1.5,0,2c0.6,0.6,1.5,0.6,2,0L-45,84l3.6,3.6C-40.9,88.1-40,88.1-39.4,87.6z M-24.1,78.4c-0.1-0.2-0.2-0.3-0.3-0.5
	c-0.4-0.4-1.1-0.5-1.6-0.3c-0.2,0.1-0.4,0.2-0.5,0.3s-0.1,0.1-0.1,0.2l-13.5,13.4c-0.6,0.6-0.6,1.5,0,2c0.6,0.6,1.5,0.6,2,0
	L-25.5,81l5.1,5.1c0.6,0.6,1.5,0.6,2,0c0.6-0.6,0.6-1.5,0-2L-24.1,78.4z"/>
</svg>
