<?xml version="1.0" encoding="utf-8"?>
<!-- Generator: Adobe Illustrator 19.0.0, SVG Export Plug-In . SVG Version: 6.00 Build 0)  -->
<svg version="1.1" id="Layer_1" xmlns="http://www.w3.org/2000/svg" xmlns:xlink="http://www.w3.org/1999/xlink" x="0px" y="0px"
	 viewBox="0 0 170 150" style="enable-background:new 0 0 170 150;" xml:space="preserve">
<style type="text/css">
	.st0{fill:#FFFFFF;}
</style>
<path class="st0" d="M103.9,66.8l-1.4-8.1h-7.3l-1.3,8.1h-5L95.1,32h7.3l6.6,34.8H103.9z M98.7,36.3l-2.9,18.3h6.1L98.7,36.3z
	 M73.1,108.5h-5.9c-3.4,0-5.2-1.6-5.2-4.9v-25c0-3.3,1.7-4.9,5.2-4.9h5.9c3.4,0,5.2,1.6,5.2,4.9v5.3h-5.1v-4.6
	c0-0.7-0.1-1.1-0.3-1.3c-0.2-0.2-0.7-0.3-1.3-0.3h-2.8c-0.7,0-1.1,0.1-1.3,0.3c-0.2,0.2-0.3,0.6-0.3,1.3v23.7c0,0.7,0.1,1.1,0.3,1.3
	c0.2,0.2,0.7,0.3,1.3,0.3h2.8c0.7,0,1.1-0.1,1.3-0.3c0.2-0.2,0.3-0.6,0.3-1.3v-8.5h-2.8v-3.9h7.8v13
	C78.3,106.9,76.6,108.5,73.1,108.5z M72.7,66.8h-5.4c-3.4,0-5.2-1.6-5.2-4.9v-5.1h5.1v4.3c0,0.7,0.1,1.1,0.3,1.3
	c0.2,0.2,0.7,0.3,1.3,0.3h2.3c0.7,0,1.1-0.1,1.3-0.3c0.2-0.2,0.3-0.6,0.3-1.3v-8.5c0-0.7-0.1-1.1-0.3-1.3c-0.2-0.2-0.6-0.3-1.3-0.3
	h-4.1c-3.4,0-5.1-1.6-5.1-4.9v-9.2c0-3.3,1.7-4.9,5.2-4.9h5.4c3.4,0,5.2,1.6,5.2,4.9V42h-5.1v-4.3c0-0.7-0.1-1.1-0.3-1.3
	c-0.2-0.2-0.7-0.3-1.3-0.3h-2.3c-0.7,0-1.1,0.1-1.3,0.3c-0.2,0.2-0.3,0.6-0.3,1.3v7.7c0,0.7,0.1,1.1,0.3,1.3
	c0.2,0.2,0.7,0.3,1.3,0.3h4.1c3.4,0,5.1,1.6,5.1,4.9v10C77.9,65.2,76.2,66.8,72.7,66.8z M106.7,118.5H62.3V114h44.4V118.5z
	 M106.8,104.4v4.1H91.7V73.7h14.7v4.1h-9.7v10.7h8v4.1h-8v11.9H106.8z"/>
</svg>
