<?xml version="1.0" encoding="utf-8"?>
<!-- Generator: Adobe Illustrator 19.0.0, SVG Export Plug-In . SVG Version: 6.00 Build 0)  -->
<svg version="1.1" id="Layer_1" xmlns="http://www.w3.org/2000/svg" xmlns:xlink="http://www.w3.org/1999/xlink" x="0px" y="0px"
	 viewBox="0 0 170 150" style="enable-background:new 0 0 170 150;" xml:space="preserve">
<style type="text/css">
	.st0{fill:#FFFFFF;}
</style>
<path class="st0" d="M110.7,95.3V54h7.3v41.3H110.7z M85.2,96.4c-9.4,0-16.6-6.2-16.6-16.2V54h7.3v25.9c0,4.1,2.2,9.4,9.3,9.4
	c7.1,0,9.3-5.4,9.3-9.4V54h7.3v26.1C101.8,90.1,94.6,96.4,85.2,96.4z M56.4,96.3c-2.6,0-4.4-2-4.4-4.2s1.9-4.2,4.4-4.2
	c2.6,0,4.5,1.8,4.5,4.2C61,94.5,59,96.3,56.4,96.3z"/>
</svg>
