<?xml version="1.0" encoding="utf-8"?>
<!-- Generator: Adobe Illustrator 19.0.0, SVG Export Plug-In . SVG Version: 6.00 Build 0)  -->
<svg version="1.1" id="Layer_1" xmlns="http://www.w3.org/2000/svg" xmlns:xlink="http://www.w3.org/1999/xlink" x="0px" y="0px"
	 viewBox="0 0 170 150" style="enable-background:new 0 0 170 150;" xml:space="preserve">
<style type="text/css">
	.st0{fill:#FFFFFF;}
</style>
<path id="XMLID_2_" class="st0" d="M147.4,110.1c-0.9,1.5-1.8,3-2.8,4.6v5.7h-3.4v-5.7c-1-1.5-1.9-3.1-2.8-4.6
	c-0.9-1.5-1.7-3.1-2.6-4.7h3.9c0.5,1,1,2.1,1.5,3.1c0.5,1,1.1,2,1.7,3.1c0.6-1,1.2-2,1.7-3.1c0.5-1,1.1-2,1.5-3.1h3.7
	C149.2,107,148.3,108.5,147.4,110.1z M130,120.3h-3.4v-12.1h-4.5v-2.9h12.4v2.9H130V120.3z M116,105.4h3.4v15H116V105.4z
	 M107.2,120.6c-0.7,0-1.3,0-1.8-0.1c-0.5-0.1-1-0.2-1.4-0.3c-0.4-0.1-0.8-0.2-1.1-0.4c-0.3-0.1-0.5-0.3-0.7-0.4l0.9-2.7
	c0.4,0.2,1,0.5,1.7,0.7c0.7,0.2,1.5,0.3,2.4,0.3c0.5,0,0.9,0,1.2-0.1c0.3-0.1,0.6-0.2,0.7-0.3c0.2-0.1,0.3-0.3,0.4-0.5
	c0.1-0.2,0.1-0.4,0.1-0.6c0-0.5-0.2-0.9-0.7-1.2c-0.5-0.3-1.3-0.7-2.4-1c-0.5-0.2-1-0.4-1.5-0.6c-0.5-0.2-0.9-0.5-1.3-0.8
	c-0.4-0.3-0.7-0.7-1-1.2c-0.2-0.5-0.4-1.1-0.4-1.8c0-0.7,0.1-1.3,0.4-1.9c0.3-0.6,0.6-1,1.1-1.4c0.5-0.4,1.1-0.7,1.7-0.9
	c0.7-0.2,1.4-0.3,2.3-0.3c1,0,1.9,0.1,2.6,0.3c0.7,0.2,1.3,0.5,1.8,0.7l-1,2.7c-0.4-0.2-0.9-0.4-1.4-0.6c-0.5-0.2-1.1-0.2-1.8-0.2
	c-0.8,0-1.4,0.1-1.7,0.3c-0.4,0.2-0.5,0.6-0.5,1c0,0.3,0.1,0.5,0.2,0.7c0.1,0.2,0.3,0.4,0.6,0.5c0.2,0.2,0.5,0.3,0.8,0.4
	c0.3,0.1,0.7,0.2,1,0.4c0.8,0.3,1.5,0.6,2,0.9c0.6,0.3,1.1,0.6,1.4,1c0.4,0.4,0.7,0.8,0.9,1.3c0.2,0.5,0.3,1.1,0.3,1.8
	c0,1.4-0.5,2.5-1.5,3.3C110.7,120.2,109.2,120.6,107.2,120.6z M96.2,118.8c-0.3-0.5-0.6-1-0.9-1.5c-0.3-0.5-0.6-0.9-0.9-1.4
	c-0.3-0.4-0.6-0.8-0.9-1.2h-1.7v5.5h-3.4v-14.8c0.7-0.1,1.5-0.2,2.3-0.3c0.8-0.1,1.5-0.1,2.1-0.1c2.2,0,4,0.4,5.2,1.2
	c1.2,0.8,1.8,2,1.8,3.7c0,1.1-0.2,1.9-0.7,2.6c-0.5,0.7-1.2,1.2-2.1,1.5c0.3,0.4,0.6,0.8,1,1.3s0.7,1,1,1.5c0.3,0.5,0.6,1.1,0.9,1.6
	c0.3,0.6,0.6,1.1,0.8,1.7H97C96.7,119.8,96.5,119.3,96.2,118.8z M95.6,108.5c-0.6-0.3-1.4-0.5-2.5-0.5c-0.2,0-0.5,0-0.7,0
	s-0.4,0-0.6,0v4.1h1c1.3,0,2.2-0.2,2.7-0.5c0.5-0.3,0.8-0.9,0.8-1.6C96.4,109.4,96.1,108.8,95.6,108.5z M74.8,105.4h10.1v2.8h-6.7
	v2.9h6v2.8h-6v3.6h7.2v2.8H74.8V105.4z M70.4,112.4c-0.5,1.3-1.1,2.7-1.6,4c-0.6,1.4-1.2,2.7-1.8,3.9h-3.2c-0.6-1.3-1.2-2.6-1.8-3.9
	c-0.6-1.4-1.1-2.7-1.7-4c-0.5-1.3-1-2.6-1.4-3.8c-0.4-1.2-0.8-2.3-1.1-3.2h3.7c0.3,0.9,0.6,1.8,0.9,2.8c0.3,1,0.7,2,1,3
	c0.4,1,0.7,1.9,1,2.9c0.3,0.9,0.6,1.7,0.9,2.4c0.3-0.7,0.6-1.4,0.9-2.3c0.3-0.9,0.7-1.9,1-2.9c0.4-1,0.7-2,1-3
	c0.3-1,0.7-1.9,0.9-2.8H73c-0.3,1-0.7,2-1.2,3.2C71.4,109.8,70.9,111.1,70.4,112.4z M51.9,105.4h3.4v15h-3.4V105.4z M42.4,115.3
	c-1.1-1.7-2.3-3.2-3.6-4.7v9.8h-3.3v-15h2.7c0.5,0.5,1,1.1,1.6,1.8c0.6,0.7,1.2,1.4,1.8,2.2c0.6,0.8,1.2,1.6,1.8,2.4
	c0.6,0.8,1.1,1.7,1.7,2.4v-8.8h3.3v15h-2.8C44.6,118.6,43.5,116.9,42.4,115.3z M30.5,119c-0.5,0.5-1.1,0.9-1.9,1.2
	c-0.8,0.3-1.7,0.4-2.8,0.4c-1.1,0-2-0.1-2.7-0.4c-0.8-0.3-1.4-0.7-1.9-1.2c-0.5-0.5-0.9-1.2-1.1-1.9c-0.2-0.7-0.4-1.5-0.4-2.4v-9.3
	h3.4v9c0,0.6,0.1,1.1,0.2,1.5c0.1,0.4,0.3,0.8,0.6,1c0.2,0.3,0.5,0.5,0.9,0.6c0.3,0.1,0.7,0.2,1.1,0.2c0.8,0,1.5-0.3,2-0.8
	s0.8-1.4,0.8-2.6v-9H32v9.3c0,0.9-0.1,1.7-0.4,2.4C31.4,117.8,31,118.5,30.5,119z"/>
<g id="XMLID_1_">
	<path id="XMLID_17_" class="st0" d="M104.8,34c-2.6,0-3.8,1.1-3.8,3.6v20.7c0,5.1-3.2,8-8,8c-4.8,0-8-2.9-8-7.9V37.6
		c0-2.5-0.9-3.6-3.5-3.6H75v6h1.9c0.8,0,1.1,0.4,1.1,1.1v17.5c0,8.5,5.9,14.3,15.1,14.3c9,0,14.9-5.8,14.9-14.3V41.1
		c0-0.8,0.7-1.1,1.4-1.1h2.6v-6H104.8z"/>
	<path id="XMLID_18_" class="st0" d="M108,41.1v17.5c0,8.5-5.9,14.3-14.9,14.3c-9.1,0-15.1-5.8-15.1-14.3V41.1
		c0-0.8-0.3-1.1-1.1-1.1H75v-6h6.5c2.6,0,3.5,1.1,3.5,3.6v20.8c0,5,3.2,7.9,8,7.9c4.8,0,8-2.9,8-8V37.6c0-2.5,1.2-3.6,3.8-3.6h7.2
		v-8H58v54h54V40h-2.6C108.7,40,108,40.4,108,41.1z"/>
</g>
</svg>
