<svg xmlns="http://www.w3.org/2000/svg" xmlns:xlink="http://www.w3.org/1999/xlink" preserveAspectRatio="xMidYMid" width="25.125" height="46.25" viewBox="0 0 25.125 46.25">
  <defs>
    <style>
      .cls-1 {
        fill: #fff;
        fill-rule: evenodd;
      }
    </style>
  </defs>
  <path d="M22.424,18.600 L21.681,14.292 L17.759,14.292 L17.076,18.600 L14.402,18.600 L17.700,0.003 L21.592,0.003 L25.127,18.600 L22.424,18.600 ZM19.631,2.320 L18.086,12.124 L21.325,12.124 L19.631,2.320 ZM5.936,40.911 L2.757,40.911 C0.915,40.911 -0.006,40.030 -0.006,38.267 L-0.006,24.898 C-0.006,23.156 0.915,22.284 2.757,22.284 L5.936,22.284 C7.778,22.284 8.698,23.156 8.698,24.898 L8.698,27.721 L5.995,27.721 L5.995,25.255 C5.995,24.898 5.936,24.666 5.817,24.557 C5.698,24.448 5.460,24.393 5.104,24.393 L3.589,24.393 C3.232,24.393 2.995,24.448 2.876,24.557 C2.757,24.666 2.697,24.898 2.697,25.255 L2.697,37.940 C2.697,38.297 2.757,38.530 2.876,38.638 C2.995,38.747 3.232,38.802 3.589,38.802 L5.104,38.802 C5.460,38.802 5.698,38.747 5.817,38.638 C5.936,38.530 5.995,38.297 5.995,37.940 L5.995,33.395 L4.510,33.395 L4.510,31.315 L8.698,31.315 L8.698,38.267 C8.698,40.030 7.778,40.911 5.936,40.911 ZM5.728,18.600 L2.846,18.600 C1.004,18.600 0.083,17.729 0.083,15.986 L0.083,13.253 L2.787,13.253 L2.787,15.570 C2.787,15.927 2.846,16.160 2.965,16.268 C3.084,16.377 3.321,16.432 3.678,16.432 L4.925,16.432 C5.282,16.432 5.515,16.377 5.624,16.268 C5.732,16.160 5.787,15.927 5.787,15.570 L5.787,11.025 C5.787,10.668 5.732,10.436 5.624,10.326 C5.515,10.218 5.282,10.163 4.925,10.163 L2.727,10.163 C0.925,10.163 0.024,9.282 0.024,7.519 L0.024,2.617 C0.024,0.874 0.945,0.003 2.787,0.003 L5.698,0.003 C7.540,0.003 8.461,0.874 8.461,2.617 L8.461,5.350 L5.757,5.350 L5.757,3.033 C5.757,2.676 5.698,2.444 5.579,2.335 C5.460,2.226 5.223,2.171 4.866,2.171 L3.618,2.171 C3.262,2.171 3.024,2.226 2.905,2.335 C2.787,2.444 2.727,2.676 2.727,3.033 L2.727,7.162 C2.727,7.519 2.787,7.752 2.905,7.860 C3.024,7.970 3.262,8.024 3.618,8.024 L5.787,8.024 C7.609,8.024 8.520,8.896 8.520,10.638 L8.520,15.986 C8.520,17.729 7.589,18.600 5.728,18.600 ZM23.924,46.248 L0.157,46.248 L0.157,43.871 L23.924,43.871 L23.924,46.248 ZM23.969,38.713 L23.969,40.881 L15.888,40.881 L15.888,22.284 L23.761,22.284 L23.761,24.453 L18.591,24.453 L18.591,30.187 L22.869,30.187 L22.869,32.355 L18.591,32.355 L18.591,38.713 L23.969,38.713 Z" class="cls-1"/>
</svg>
